{"title":"Tomorrowland.2015.CAM.XviD-TODE","uid":11955822,"size":1525219184,"categoryP":"video","categoryS":"movies","magnet":"?xt=urn:btih:ab2a2f9091fdcd305a0e64ffdcef04f37dbd7598&amp;dn=Tomorrowland.2015.CAM.XviD-TODE&amp;tr=udp%3A%2F%2Ftracker.openbittorrent.com%3A80&amp;tr=udp%3A%2F%2Fopen.demonii.com%3A1337&amp;tr=udp%3A%2F%2Ftracker.coppersurfer.tk%3A6969&amp;tr=udp%3A%2F%2Fexodus.desync.com%3A6969","seeders":17,"leechers":4,"uploader":"xxxlavalxxx","files":4,"time":1432408348,"description":" &lt;a href=&quot;http://extraimago.com/image/NvE&quot; rel=&quot;nofollow&quot; target=&quot;_NEW&quot;&gt;http://extraimago.com/image/NvE&lt;/a&gt;\n &lt;a href=&quot;\nhttp://www.imdb.com/title/tt1964418/&quot; rel=&quot;nofollow&quot; target=&quot;_NEW&quot;&gt;\nhttp://www.imdb.com/title/tt1964418/&lt;/a&gt;\n\n\nBound by a shared destiny, a teen bursting with scientific curiosity and a former boy-genius inventor embark on a mission to unearth the secrets of a place somewhere in time and space that exists in their collective memory.\n\nDirector: Brad Bird\nWriters: Damon Lindelof (screenplay), Brad Bird (screenplay)\nStars: George Clooney, Britt Robertson, Hugh Laurie\nGenres: Action | Adventure | Mystery | Sci-Fi\nCountry: USA\nLanguage: English\n\n\nFormat                                   : AVI\nFormat/Info                              : Audio Video Interleave\nFile size                                : 1.34 GiB\nDuration                                 : 2h 1mn\nOverall bit rate                         : 1 582 Kbps\nWriting library                          : VirtualDub build 32842/release\n\nVideo\nID                                       : 0\nFormat                                   : MPEG-4 Visual\nFormat profile                           : Advanced Simple@L5\nFormat settings, BVOP                    : 2\nFormat settings, QPel                    : No\nFormat settings, GMC                     : No warppoints\nFormat settings, Matrix                  : Default (H.263)\nMuxing mode                              : Packed bitstream\nCodec ID                                 : XVID\nCodec ID/Hint                            : XviD\nDuration                                 : 2h 1mn\nBit rate                                 : 1 239 Kbps\nWidth                                    : 640 pixels\nHeight                                   : 242 pixels\nDisplay aspect ratio                     : 2.645\nFrame rate                               : 59.940 fps\nColor space                              : YUV\nChroma subsampling                       : 4:2:0\nBit depth                                : 8 bits\nScan type                                : Progressive\nCompression mode                         : Lossy\nBits/(Pixel*Frame)                       : 0.133\nStream size                              : 1.05 GiB (78%)\nWriting library                          : XviD 64\n\nAudio\nID                                       : 1\nFormat                                   : MPEG Audio\nFormat version                           : Version 1\nFormat profile                           : Layer 3\nCodec ID                                 : 55\nCodec ID/Hint                            : MP3\nDuration                                 : 2h 1mn\nBit rate mode                            : Constant\nBit rate                                 : 320 Kbps\nChannel(s)                               : 2 channels\nSampling rate                            : 44.1 KHz\nCompression mode                         : Lossy\nStream size                              : 278 MiB (20%)\nAlignment                                : Split accross interleaves\nInterleave, duration                     : 17 ms (1.00 video frame)\nInterleave, preload duration             : 500 ms\n\n &lt;a href=&quot;\nhttp://extraimago.com/image/NvO&quot; rel=&quot;nofollow&quot; target=&quot;_NEW&quot;&gt;\nhttp://extraimago.com/image/NvO&lt;/a&gt; &lt;a href=&quot;\nhttp://extraimago.com/image/NvS&quot; rel=&quot;nofollow&quot; target=&quot;_NEW&quot;&gt;\nhttp://extraimago.com/image/NvS&lt;/a&gt; &lt;a href=&quot;\nhttp://extraimago.com/image/Nvq&quot; rel=&quot;nofollow&quot; target=&quot;_NEW&quot;&gt;\nhttp://extraimago.com/image/Nvq&lt;/a&gt; &lt;a href=&quot;\nhttp://extraimago.com/image/Nvy&quot; rel=&quot;nofollow&quot; target=&quot;_NEW&quot;&gt;\nhttp://extraimago.com/image/Nvy&lt;/a&gt; &lt;a href=&quot;\nhttp://extraimago.com/image/NvL&quot; rel=&quot;nofollow&quot; target=&quot;_NEW&quot;&gt;\nhttp://extraimago.com/image/NvL&lt;/a&gt; &lt;a href=&quot;\nhttp://extraimago.com/image/NvQ&quot; rel=&quot;nofollow&quot; target=&quot;_NEW&quot;&gt;\nhttp://extraimago.com/image/NvQ&lt;/a&gt; &lt;a href=&quot;\nhttp://extraimago.com/image/NvR&quot; rel=&quot;nofollow&quot; target=&quot;_NEW&quot;&gt;\nhttp://extraimago.com/image/NvR&lt;/a&gt; &lt;a href=&quot;\nhttp://extraimago.com/image/Nvm&quot; rel=&quot;nofollow&quot; target=&quot;_NEW&quot;&gt;\nhttp://extraimago.com/image/Nvm&lt;/a&gt;","torrent":{"xt":"urn:btih:ab2a2f9091fdcd305a0e64ffdcef04f37dbd7598","amp;dn":"Tomorrowland.2015.CAM.XviD-TODE","amp;tr":["udp%3A%2F%2Ftracker.openbittorrent.com%3A80","udp%3A%2F%2Fopen.demonii.com%3A1337","udp%3A%2F%2Ftracker.coppersurfer.tk%3A6969","udp%3A%2F%2Fexodus.desync.com%3A6969"],"infoHash":"ab2a2f9091fdcd305a0e64ffdcef04f37dbd7598","infoHashBuffer":{"type":"Buffer","data":[171,42,47,144,145,253,205,48,90,14,100,255,220,239,4,243,125,189,117,152]},"announce":[],"urlList":[]}}